# This file uses centimeters as units for non-parametric coordinates.

mtllib Tentacle.mtl
g default
v 0.009671 0.000000 -0.961315
v 0.801141 14.893341 -0.621848
v -0.727851 8.066383 -0.638381
v -0.038403 4.038567 -1.286161
v 0.009671 -0.000000 1.038685
v 0.012758 3.959309 0.415978
v 0.061403 1.991989 0.725964
v 0.048727 2.003809 -1.140968
v -0.990321 -0.000000 0.042416
v -0.874295 1.954075 -0.199424
v -0.928137 0.986350 -0.080336
v 0.036657 0.999507 -1.052825
v -0.701514 0.000000 -0.664319
v -0.650172 0.990637 -0.764529
v -0.610359 1.970902 -0.860464
v 0.039903 0.997168 0.882311
v -0.698817 -0.000000 0.744407
v -0.645279 0.989022 0.598506
v -0.598925 1.962695 0.454522
v -0.851658 3.857090 -0.419483
v 0.032610 3.014616 -1.221464
v -0.840972 2.908137 -0.313433
v -0.594569 2.945932 -0.949121
v -0.627445 3.926022 -1.024554
v 0.060901 2.980822 0.570273
v -0.572248 2.922370 0.312888
v -0.589147 3.870578 0.174336
v 1.009664 0.000000 0.034953
v 0.984425 2.041723 -0.215581
v 1.004697 1.010325 -0.090178
v 0.720856 -0.000000 0.741688
v 0.726732 1.006038 0.594015
v 0.720489 2.024896 0.445459
v 0.718159 0.000000 -0.667038
v 0.721839 1.007653 -0.769020
v 0.709054 2.033103 -0.869526
v 0.826013 4.140786 -0.450699
v 0.934483 3.087301 -0.337758
v 0.688080 3.049505 0.297930
v 0.601800 4.071855 0.154372
v 0.665759 3.073067 -0.964079
v 0.563502 4.127298 -1.044518
v -0.646625 7.696386 0.577301
v -0.454571 6.091925 -1.209271
v -0.350508 5.819094 0.243436
v -1.116132 5.771976 -0.463445
v -0.208593 5.070917 -1.306283
v -0.946970 4.804268 -0.496141
v -0.750656 4.915649 -1.060873
v -0.946756 5.921245 -0.981625
v -0.127330 4.906013 0.280651
v -0.691317 4.799993 0.056868
v -0.871533 5.729566 0.041563
v -1.295315 7.862555 0.016433
v -0.663686 7.088513 -0.959368
v -1.270320 6.795679 -0.265262
v -1.115896 6.953143 -0.742290
v -1.148355 7.998538 -0.426060
v -0.563999 6.738788 0.367559
v -1.043909 6.707126 0.192272
v -1.089502 7.737976 0.430100
v 0.311053 6.139044 -0.502391
v 0.611047 5.172662 -0.529491
v 0.414733 5.061281 0.035240
v 0.141677 5.989775 0.015790
v 0.355394 5.176937 -1.082501
v 0.066454 6.181453 -1.007398
v -0.079161 7.900214 -0.077513
v 0.042635 7.031622 -0.326547
v -0.111790 6.874158 0.150480
v -0.226120 7.764231 0.364980
v -0.183777 7.120175 -0.784081
v -0.284973 8.024794 -0.491180
v 1.090347 11.264651 -0.107299
v 1.259620 11.356506 0.743506
v -0.111642 9.827446 -0.165723
v -0.019559 9.617176 0.858013
v -0.586390 9.846294 0.414584
v -0.554831 9.000654 -0.348164
v -1.081166 8.910781 0.270075
v -0.944524 9.004162 -0.140673
v -0.468470 9.884676 0.033615
v -0.481094 8.677155 0.765886
v -0.891067 8.776106 0.643863
v -0.402205 9.736235 0.754517
v 0.742906 11.435306 0.393435
v 0.476117 10.559133 -0.088882
v 0.061163 10.667336 0.452485
v 0.154371 10.649135 0.100228
v 0.807970 11.366875 0.071490
v 0.603904 10.496525 0.851055
v 0.245672 10.604659 0.762096
v 0.928366 11.431237 0.670567
v 0.455188 9.598328 0.277706
v 0.045241 8.767030 0.147648
v -0.091401 8.673648 0.558396
v 0.337269 9.559946 0.658675
v -0.144858 8.901704 -0.226141
v 0.271004 9.708387 -0.062227
v 1.607060 11.185852 0.242771
v 1.018858 10.388321 0.309689
v 0.925649 10.406523 0.661945
v 1.541996 11.254283 0.564716
v 0.834349 10.450997 0.000077
v 1.421600 11.189920 -0.034361
v 0.966733 14.879035 -0.340703
v 1.517181 12.946652 -0.604702
v 1.724045 13.140704 -0.035743
v 1.342735 13.009212 -0.208165
v 1.550776 12.043614 -0.278359
v 1.284201 12.215311 0.177017
v 1.319147 12.121792 -0.106995
v 1.350002 12.950699 -0.441273
v 1.752499 12.254395 0.453299
v 1.462225 12.270080 0.408120
v 1.496459 13.087477 -0.040819
v 0.755132 14.817362 -0.408205
v 1.169740 13.931293 -0.728528
v 1.077844 13.879235 -0.418407
v 1.061774 13.881936 -0.594160
v 0.733907 14.842287 -0.528505
v 1.374181 13.990468 -0.315014
v 1.206300 13.923838 -0.303172
v 0.850892 14.832396 -0.330672
v 1.898490 13.078144 -0.432280
v 2.019074 12.082698 -0.002077
v 1.984128 12.176218 0.281935
v 1.891224 13.136658 -0.199172
v 1.841050 12.027929 -0.233181
v 1.744766 12.999880 -0.599626
v 1.012741 14.955014 -0.554346
v 1.466076 14.042525 -0.625135
v 1.482147 14.039824 -0.449383
v 1.033967 14.930089 -0.434047
v 1.337621 13.997923 -0.740371
v 0.916982 14.939981 -0.631879
v 0.629140 15.484344 -0.366919
v 0.697622 15.511920 -0.372849
v 0.727036 15.475887 -0.200720
v 0.658553 15.448311 -0.194791
v 0.601943 15.439432 -0.240623
v 0.589394 15.454159 -0.311743
v 0.754237 15.520805 -0.327019
v 0.766781 15.506074 -0.255900
v 0.633889 15.853198 -0.219308
v 0.671925 15.848789 -0.223687
v 0.675805 15.802508 -0.143344
v 0.637767 15.806920 -0.138975
v 0.609948 15.823463 -0.159232
v 0.608119 15.842610 -0.192419
v 0.699750 15.832251 -0.203421
v 0.701570 15.813093 -0.170240
v 0.654847 15.827853 -0.181328
v 0.663387 15.838310 -0.202507
v 0.670784 15.829422 -0.189170
v 0.678209 15.820477 -0.175776
v 0.662229 15.818930 -0.167949
v 0.646307 15.817397 -0.160145
v 0.638911 15.826303 -0.173482
v 0.631483 15.835241 -0.186869
v 0.647465 15.836780 -0.194705
vt 0.000000 0.000000
vt 1.000000 1.058643
vt 1.000000 0.428382
vt 1.000000 0.172004
vt 0.500000 0.000000
vt 0.500000 0.172004
vt 0.500000 0.078868
vt 0.000000 0.078868
vt 0.250595 0.000000
vt 0.250595 0.078868
vt 0.250595 0.038668
vt 0.000000 0.038668
vt 0.125923 0.000000
vt 0.125923 0.038668
vt 0.125923 0.078868
vt 0.500000 0.038668
vt 0.374688 0.000000
vt 0.374688 0.038668
vt 0.374688 0.078868
vt 0.250595 0.172004
vt 1.000000 0.122211
vt 0.250595 0.122211
vt 0.125923 0.122211
vt 0.125923 0.172004
vt 0.500000 0.122211
vt 0.374688 0.122211
vt 0.374688 0.172004
vt 0.750595 0.000000
vt 0.750595 0.078868
vt 0.750595 0.038668
vt 0.625923 0.000000
vt 0.625923 0.038668
vt 0.625923 0.078868
vt 0.874688 0.000000
vt 0.874688 0.038668
vt 0.874688 0.078868
vt 0.750595 0.172004
vt 0.750595 0.122211
vt 0.625923 0.122211
vt 0.625923 0.172004
vt 0.874688 0.122211
vt 0.874688 0.172004
vt 0.500000 0.428382
vt 0.000000 0.302586
vt 0.500000 0.302586
vt 0.250595 0.302586
vt 0.000000 0.233119
vt 0.250595 0.233119
vt 0.125923 0.233119
vt 0.125923 0.302586
vt 0.500000 0.233119
vt 0.374688 0.233119
vt 0.374688 0.302586
vt 0.250595 0.428382
vt 1.000000 0.368382
vt 0.250595 0.368382
vt 0.125923 0.368382
vt 0.125923 0.428382
vt 0.500000 0.368382
vt 0.374688 0.368382
vt 0.374688 0.428382
vt 0.750595 0.302586
vt 0.750595 0.233119
vt 0.625923 0.233119
vt 0.625923 0.302586
vt 0.874688 0.233119
vt 0.874688 0.302586
vt 0.750595 0.428382
vt 0.750595 0.368382
vt 0.625923 0.368382
vt 0.625923 0.428382
vt 0.874688 0.368382
vt 0.874688 0.428382
vt 1.000000 0.641467
vt 0.500000 0.641467
vt 0.000000 0.537609
vt 0.500000 0.537609
vt 0.250595 0.537609
vt 0.000000 0.485175
vt 0.250595 0.485175
vt 0.125923 0.485175
vt 0.125923 0.537609
vt 0.500000 0.485175
vt 0.374688 0.485175
vt 0.374688 0.537609
vt 0.250595 0.641467
vt 1.000000 0.587634
vt 0.250595 0.587634
vt 0.125923 0.587634
vt 0.125923 0.641467
vt 0.500000 0.587634
vt 0.374688 0.587634
vt 0.374688 0.641467
vt 0.750595 0.537609
vt 0.750595 0.485175
vt 0.625923 0.485175
vt 0.625923 0.537609
vt 0.874688 0.485175
vt 0.874688 0.537609
vt 0.750595 0.641467
vt 0.750595 0.587634
vt 0.625923 0.587634
vt 0.625923 0.641467
vt 0.874688 0.587634
vt 0.874688 0.641467
vt 0.500000 1.058643
vt 0.000000 0.811184
vt 0.500000 0.811184
vt 0.250595 0.811184
vt 0.000000 0.712975
vt 0.250595 0.712975
vt 0.125923 0.712975
vt 0.125923 0.811184
vt 0.500000 0.712975
vt 0.374688 0.712975
vt 0.374688 0.811184
vt 0.250595 1.058643
vt 1.000000 0.998554
vt 0.250595 0.998554
vt 0.125923 0.998554
vt 0.125923 1.058643
vt 0.500000 0.998554
vt 0.374688 0.998554
vt 0.374688 1.058643
vt 0.750595 0.811184
vt 0.750595 0.712975
vt 0.625923 0.712975
vt 0.625923 0.811184
vt 0.874688 0.712975
vt 0.874688 0.811184
vt 0.750595 1.058643
vt 0.750595 0.998554
vt 0.625923 0.998554
vt 0.625923 1.058643
vt 0.874688 0.998554
vt 0.874688 1.058643
vt 0.000000 0.122211
vt 0.000000 0.172004
vt 1.000000 0.038668
vt 1.000000 0.078868
vt 1.000000 0.000000
vt 0.000000 0.368382
vt 0.000000 0.428382
vt 1.000000 0.233119
vt 1.000000 0.302586
vt 0.000000 0.587634
vt 0.000000 0.641467
vt 1.000000 0.485175
vt 1.000000 0.537609
vt 0.000000 0.998554
vt 0.000000 1.058643
vt 1.000000 0.712975
vt 1.000000 0.811184
vt 1.000000 1.157246
vt 0.874688 1.157246
vt 0.500000 1.157246
vt 0.374688 1.157246
vt 0.250595 1.157246
vt 0.125923 1.157246
vt 0.000000 1.157246
vt 0.750595 1.157246
vt 0.625923 1.157246
vt 0.000000 1.191343
vt 0.874688 1.191343
vt 0.500000 1.191343
vt 0.374688 1.191343
vt 0.250595 1.191343
vt 0.125923 1.191343
vt 0.750595 1.191343
vt 0.625923 1.191343
vt 0.625923 1.231390
vt 0.374688 1.231390
vt 0.125923 1.231390
vt 0.874688 1.231390
vt 1.000000 1.191343
vt 0.874688 1.215197
vt 0.750595 1.224135
vt 0.625923 1.215197
vt 0.500000 1.224135
vt 0.374688 1.215197
vt 0.250595 1.224135
vt 0.125923 1.215197
vt 1.000000 1.224135
vt 0.000000 1.224135
vn -0.374694 -0.163546 -0.912610
vn -0.475081 0.008227 -0.879904
vn 0.197524 0.282461 -0.938722
vn 0.313478 0.100706 -0.944240
vn -0.113297 0.261569 -0.958512
vn -0.123946 0.307597 -0.943410
vn 0.638778 0.219256 -0.737489
vn 0.622232 0.319209 -0.714796
vn 0.009984 -0.071038 -0.997424
vn 0.010176 -0.041418 -0.999090
vn 0.694320 0.060701 -0.717102
vn 0.704462 -0.011441 -0.709650
vn 0.009954 0.155432 0.987796
vn 0.012557 0.148525 0.988829
vn -0.691117 0.055271 0.720626
vn -0.694708 0.107253 0.711251
vn 0.005475 0.155208 0.987867
vn 0.008087 0.155534 0.987797
vn -0.696368 0.129784 0.705852
vn -0.697513 0.138858 0.702989
vn -0.998233 0.059346 0.003055
vn -0.998919 0.045920 0.007272
vn -0.706418 -0.045853 -0.706308
vn -0.706479 -0.037274 -0.706751
vn -0.725897 -0.031611 -0.687077
vn -0.997229 0.066741 0.032877
vn -0.006659 -0.090788 -0.995848
vn 0.003034 -0.089074 -0.996020
vn 0.006636 -0.083115 -0.996518
vn -0.686266 0.142065 0.713342
vn -0.004189 0.155240 0.987868
vn -0.998481 -0.051559 0.019403
vn -0.699948 -0.095025 -0.707844
vn -0.705641 -0.064383 -0.705638
vn -0.999799 0.014143 0.014238
vn 0.706463 -0.048258 -0.706103
vn 0.705764 -0.067449 -0.705229
vn 0.999922 0.011299 -0.005338
vn 0.999426 0.031908 -0.011390
vn 0.711872 0.114390 0.692931
vn 0.708552 0.102551 0.698167
vn 0.687009 0.101874 0.719472
vn 0.999604 0.008073 0.026969
vn 0.716053 -0.073105 -0.694207
vn 0.988213 0.149372 -0.033514
vn 0.711224 0.183895 0.678486
vn 0.713962 0.139268 0.686195
vn 0.997149 0.072448 -0.021097
vn 0.034639 -0.202491 0.978671
vn -0.683364 -0.112897 0.721296
vn -0.682651 -0.209284 0.700134
vn 0.042019 -0.163606 0.985631
vn 0.016715 0.097695 0.995076
vn 0.030937 -0.032317 0.998999
vn -0.682520 -0.171620 0.710431
vn -0.687950 -0.048603 0.724128
vn -0.700658 -0.099125 -0.706578
vn -0.990664 -0.135683 0.013246
vn -0.986308 -0.164578 0.010476
vn -0.730524 -0.029406 -0.682254
vn -0.013982 0.032641 -0.999369
vn -0.068277 0.152862 -0.985886
vn -0.994272 0.060887 0.087845
vn -0.783310 0.231323 -0.576989
vn -0.770322 0.089997 -0.631273
vn -0.994503 -0.098402 0.035801
vn 0.627334 0.284100 -0.725079
vn 0.664523 0.172461 -0.727094
vn 0.955120 0.293179 -0.042332
vn 0.717033 0.166025 0.676979
vn 0.705932 0.215974 0.674548
vn 0.968305 0.245829 -0.044210
vn 0.997556 0.022775 -0.066055
vn 0.745969 -0.149105 0.649074
vn 0.740735 0.024602 0.671346
vn 0.973855 0.224356 -0.035650
vn -0.111107 0.136766 -0.984353
vn -0.153230 -0.010210 -0.988138
vn 0.498696 -0.431645 -0.751655
vn 0.492687 -0.362900 -0.790926
vn 0.214299 0.070791 0.974199
vn -0.417968 0.461719 0.782380
vn -0.456155 0.394664 0.797598
vn 0.134380 -0.035271 0.990302
vn 0.040711 -0.158096 0.986584
vn 0.083629 -0.096139 0.991849
vn -0.533613 0.273229 0.800376
vn -0.634398 0.082681 0.768572
vn -0.748679 0.395515 -0.532022
vn -0.942294 0.295807 0.156781
vn -0.835993 0.513602 0.193209
vn -0.672517 0.521799 -0.524829
vn -0.114267 0.294924 -0.948664
vn -0.098455 0.229740 -0.968259
vn -0.765797 0.629152 0.133126
vn -0.668360 0.456367 -0.587388
vn -0.624897 0.549272 -0.554801
vn -0.758096 0.629796 0.169257
vn 0.544415 -0.221302 -0.809097
vn 0.613634 0.002031 -0.789588
vn 0.855701 -0.493642 -0.155220
vn 0.675449 -0.427579 0.600787
vn 0.716364 -0.316690 0.621716
vn 0.955595 -0.265547 -0.127763
vn 0.850162 -0.518991 -0.088732
vn 0.733830 -0.313546 0.602647
vn 0.662249 -0.438022 0.607917
vn 0.803240 -0.582844 -0.122877
vn 0.433966 0.149483 0.888442
vn -0.288952 -0.147279 0.945947
vn -0.372377 0.041881 0.927136
vn 0.360597 0.329786 0.872474
vn 0.325342 0.284777 0.901696
vn 0.346022 0.442097 0.827538
vn -0.433365 0.321283 0.842005
vn -0.399523 0.468355 0.788051
vn -0.820518 0.134053 -0.555680
vn -0.880515 0.433932 0.190778
vn -0.948720 0.026585 0.314998
vn -0.871857 -0.236075 -0.429108
vn -0.187744 -0.227608 -0.955483
vn -0.265102 -0.288028 -0.920196
vn -0.848785 -0.307545 0.430093
vn -0.913210 -0.236977 -0.331497
vn -0.879924 -0.311782 -0.358505
vn -0.882121 -0.230870 0.410562
vn 0.467096 -0.131386 -0.874391
vn 0.549089 -0.350305 -0.758807
vn 0.919416 0.116124 -0.375752
vn 0.888030 0.342501 0.306749
vn 0.871303 0.012327 0.490590
vn 0.956185 -0.234054 -0.175866
vn 0.756673 0.445787 -0.478247
vn 0.872388 0.398164 0.283557
vn 0.854844 0.442565 0.270884
vn 0.813129 0.339209 -0.473032
vn -0.566449 0.213773 -0.795887
vn 0.152033 0.445828 -0.882113
vn 0.482554 -0.024432 0.875525
vn -0.239199 -0.248948 0.938514
vn -0.836555 -0.273114 0.474957
vn -0.967636 -0.082393 -0.238521
vn 0.775092 0.470944 -0.421242
vn 0.908874 0.272326 0.315889
vn -0.557975 0.339858 -0.757073
vn 0.155392 0.434117 -0.887353
vn 0.460005 -0.060231 0.885871
vn -0.340781 -0.138264 0.929920
vn -0.906428 -0.039939 0.420469
vn -0.957107 0.153017 -0.246034
vn 0.814315 0.353845 -0.460092
vn 0.945333 0.144479 0.292355
vn 0.155640 0.859244 0.487316
vn 0.155844 0.859118 0.487472
vn 0.155824 0.859110 0.487494
vn 0.155760 0.859067 0.487589
vn 0.155648 0.859197 0.487396
vn 0.155616 0.859296 0.487232
vn 0.155800 0.859229 0.487291
vn 0.155690 0.859202 0.487374
vn 0.155825 0.859300 0.487157
s 1
g extrudedSurface1
usemtl initialShadingGroup
f 118/118/1 2/2/2 136/136/3 135/135/4
f 55/55/5 3/3/6 73/73/7 72/72/8
f 21/21/9 4/4/10 42/42/11 41/41/12
f 25/25/13 6/6/14 27/27/15 26/26/16
f 16/16/17 7/7/18 19/19/19 18/18/20
f 11/11/21 10/10/22 15/15/23 14/14/24
f 13/13/25 9/9/26 11/11/21 14/14/24
f 1/1/27 13/13/25 14/14/24 12/12/28
f 15/15/23 8/8/29 12/12/28 14/14/24
f 17/17/30 5/5/31 16/16/17 18/18/20
f 9/9/26 17/17/30 18/18/20 11/11/21
f 19/19/19 10/10/22 11/11/21 18/18/20
f 20/20/32 24/24/33 23/23/34 22/22/35
f 15/15/23 10/10/22 22/22/35 23/23/34
f 21/137/9 8/8/29 15/15/23 23/23/34
f 24/24/33 4/138/10 21/137/9 23/23/34
f 7/7/18 25/25/13 26/26/16 19/19/19
f 26/26/16 22/22/35 10/10/22 19/19/19
f 27/27/15 20/20/32 22/22/35 26/26/16
f 12/139/28 8/140/29 36/36/36 35/35/37
f 30/30/38 29/29/39 33/33/40 32/32/41
f 31/31/42 28/28/43 30/30/38 32/32/41
f 5/5/31 31/31/42 32/32/41 16/16/17
f 33/33/40 7/7/18 16/16/17 32/32/41
f 34/34/44 1/141/27 12/139/28 35/35/37
f 28/28/43 34/34/44 35/35/37 30/30/38
f 36/36/36 29/29/39 30/30/38 35/35/37
f 37/37/45 40/40/46 39/39/47 38/38/48
f 33/33/40 29/29/39 38/38/48 39/39/47
f 25/25/13 7/7/18 33/33/40 39/39/47
f 40/40/46 6/6/14 25/25/13 39/39/47
f 8/140/29 21/21/9 41/41/12 36/36/36
f 41/41/12 38/38/48 29/29/39 36/36/36
f 42/42/11 37/37/45 38/38/48 41/41/12
f 43/43/49 61/61/50 60/60/51 59/59/52
f 51/51/53 45/45/54 53/53/55 52/52/56
f 49/49/57 48/48/58 46/46/59 50/50/60
f 24/24/33 20/20/32 48/48/58 49/49/57
f 47/47/61 4/138/10 24/24/33 49/49/57
f 44/44/62 47/47/61 49/49/57 50/50/60
f 27/27/15 6/6/14 51/51/53 52/52/56
f 20/20/32 27/27/15 52/52/56 48/48/58
f 53/53/55 46/46/59 48/48/58 52/52/56
f 54/54/63 58/58/64 57/57/65 56/56/66
f 50/50/60 46/46/59 56/56/66 57/57/65
f 55/142/5 44/44/62 50/50/60 57/57/65
f 58/58/64 3/143/6 55/142/5 57/57/65
f 53/53/55 45/45/54 59/59/52 60/60/51
f 56/56/66 46/46/59 53/53/55 60/60/51
f 61/61/50 54/54/63 56/56/66 60/60/51
f 47/144/61 44/145/62 67/67/67 66/66/68
f 62/62/69 65/65/70 64/64/71 63/63/72
f 40/40/46 37/37/45 63/63/72 64/64/71
f 51/51/53 6/6/14 40/40/46 64/64/71
f 65/65/70 45/45/54 51/51/53 64/64/71
f 4/4/10 47/144/61 66/66/68 42/42/11
f 66/66/68 63/63/72 37/37/45 42/42/11
f 67/67/67 62/62/69 63/63/72 66/66/68
f 68/68/73 71/71/74 70/70/75 69/69/76
f 65/65/70 62/62/69 69/69/76 70/70/75
f 59/59/52 45/45/54 65/65/70 70/70/75
f 71/71/74 43/43/49 59/59/52 70/70/75
f 44/145/62 55/55/5 72/72/8 67/67/67
f 72/72/8 69/69/76 62/62/69 67/67/67
f 73/73/7 68/68/73 69/69/76 72/72/8
f 87/87/77 74/74/78 105/105/79 104/104/80
f 75/75/81 93/93/82 92/92/83 91/91/84
f 83/83/85 77/77/86 85/85/87 84/84/88
f 81/81/89 80/80/90 78/78/91 82/82/92
f 58/58/64 54/54/63 80/80/90 81/81/89
f 79/79/93 3/143/6 58/58/64 81/81/89
f 76/76/94 79/79/93 81/81/89 82/82/92
f 61/61/50 43/43/49 83/83/85 84/84/88
f 54/54/63 61/61/50 84/84/88 80/80/90
f 85/85/87 78/78/91 80/80/90 84/84/88
f 86/86/95 90/90/96 89/89/97 88/88/98
f 82/82/92 78/78/91 88/88/98 89/89/97
f 87/146/77 76/76/94 82/82/92 89/89/97
f 90/90/96 74/147/78 87/146/77 89/89/97
f 85/85/87 77/77/86 91/91/84 92/92/83
f 88/88/98 78/78/91 85/85/87 92/92/83
f 93/93/82 86/86/95 88/88/98 92/92/83
f 79/148/93 76/149/94 99/99/99 98/98/100
f 94/94/101 97/97/102 96/96/103 95/95/104
f 71/71/74 68/68/73 95/95/104 96/96/103
f 83/83/85 43/43/49 71/71/74 96/96/103
f 97/97/102 77/77/86 83/83/85 96/96/103
f 3/3/6 79/148/93 98/98/100 73/73/7
f 98/98/100 95/95/104 68/68/73 73/73/7
f 99/99/99 94/94/101 95/95/104 98/98/100
f 100/100/105 103/103/106 102/102/107 101/101/108
f 97/97/102 94/94/101 101/101/108 102/102/107
f 91/91/84 77/77/86 97/97/102 102/102/107
f 103/103/106 75/75/81 91/91/84 102/102/107
f 76/149/94 87/87/77 104/104/80 99/99/99
f 104/104/80 101/101/108 94/94/101 99/99/99
f 105/105/79 100/100/105 101/101/108 104/104/80
f 106/106/109 124/124/110 123/123/111 122/122/112
f 114/114/113 108/108/114 116/116/115 115/115/116
f 112/112/117 111/111/118 109/109/119 113/113/120
f 90/90/96 86/86/95 111/111/118 112/112/117
f 110/110/121 74/147/78 90/90/96 112/112/117
f 107/107/122 110/110/121 112/112/117 113/113/120
f 93/93/82 75/75/81 114/114/113 115/115/116
f 86/86/95 93/93/82 115/115/116 111/111/118
f 116/116/115 109/109/119 111/111/118 115/115/116
f 117/117/123 121/121/124 120/120/125 119/119/126
f 113/113/120 109/109/119 119/119/126 120/120/125
f 118/150/1 107/107/122 113/113/120 120/120/125
f 121/121/124 2/151/2 118/150/1 120/120/125
f 116/116/115 108/108/114 122/122/112 123/123/111
f 119/119/126 109/109/119 116/116/115 123/123/111
f 124/124/110 117/117/123 119/119/126 123/123/111
f 110/152/121 107/153/122 130/130/127 129/129/128
f 125/125/129 128/128/130 127/127/131 126/126/132
f 103/103/106 100/100/105 126/126/132 127/127/131
f 114/114/113 75/75/81 103/103/106 127/127/131
f 128/128/130 108/108/114 114/114/113 127/127/131
f 74/74/78 110/152/121 129/129/128 105/105/79
f 129/129/128 126/126/132 100/100/105 105/105/79
f 130/130/127 125/125/129 126/126/132 129/129/128
f 131/131/133 134/134/134 133/133/135 132/132/136
f 128/128/130 125/125/129 132/132/136 133/133/135
f 122/122/112 108/108/114 128/128/130 133/133/135
f 134/134/134 106/106/109 122/122/112 133/133/135
f 107/153/122 118/118/1 135/135/4 130/130/127
f 135/135/4 132/132/136 125/125/129 130/130/127
f 136/136/3 131/131/133 132/132/136 135/135/4
f 136/136/3 2/2/2 137/154/137 138/155/138
f 124/124/110 106/106/109 139/156/139 140/157/140
f 121/121/124 117/117/123 141/158/141 142/159/142
f 2/151/2 121/121/124 142/159/142 137/160/137
f 117/117/123 124/124/110 140/157/140 141/158/141
f 134/134/134 131/131/133 143/161/143 144/162/144
f 106/106/109 134/134/134 144/162/144 139/156/139
f 131/131/133 136/136/3 138/155/138 143/161/143
f 138/155/138 137/154/137 145/175/145 146/164/146
f 140/157/140 139/156/139 147/165/147 148/166/148
f 142/159/142 141/158/141 149/167/149 150/168/150
f 137/160/137 142/159/142 150/168/150 145/163/145
f 141/158/141 140/157/140 148/166/148 149/167/149
f 144/162/144 143/161/143 151/169/151 152/170/152
f 139/156/139 144/162/144 152/170/152 147/165/147
f 143/161/143 138/155/138 146/164/146 151/169/151
f 151/169/151 155/177/153 156/178/154 152/170/152
f 147/165/147 157/179/155 158/180/156 148/166/148
f 146/164/146 154/176/157 155/177/153 151/169/151
f 150/168/150 160/182/158 161/184/159 145/163/145
f 146/164/146 145/175/145 161/183/159 154/176/157
f 148/166/148 158/180/156 159/181/160 149/167/149
f 149/167/149 159/181/160 160/182/158 150/168/150
f 152/170/152 156/178/154 157/179/155 147/165/147
f 153/174/161 155/177/153 154/176/157 161/183/159
f 156/178/154 155/177/153 153/171/161 157/179/155
f 158/180/156 157/179/155 153/172/161 159/181/160
f 153/173/161 161/184/159 160/182/158 159/181/160
